<svg width="20" height="20" viewBox="0 0 20 20" fill="none" xmlns="http://www.w3.org/2000/svg">
<path d="M17.285 10.8708C16.7203 11.0208 16.1385 11.0967 15.5542 11.0966C13.775 11.0966 12.1042 10.405 10.8492 9.14997C10.0251 8.32109 9.43258 7.29069 9.13079 6.16146C8.829 5.03224 8.82845 3.84364 9.12919 2.71414C9.16675 2.57291 9.16651 2.4243 9.1285 2.2832C9.09049 2.14209 9.01604 2.01347 8.91262 1.91022C8.80921 1.80698 8.68046 1.73274 8.5393 1.69496C8.39814 1.65718 8.24952 1.65718 8.10836 1.69497C6.69432 2.07179 5.40424 2.81382 4.36752 3.84664C1.11919 7.09497 1.11919 12.3825 4.36752 15.6325C5.13963 16.4089 6.05805 17.0245 7.06964 17.4436C8.08123 17.8627 9.16589 18.077 10.2609 18.0741C11.3555 18.0772 12.4399 17.8631 13.4513 17.4441C14.4626 17.0251 15.3807 16.4096 16.1525 15.6333C17.1861 14.5964 17.9285 13.3056 18.305 11.8908C18.3424 11.7496 18.3421 11.6011 18.3041 11.4601C18.2661 11.3191 18.1918 11.1906 18.0885 11.0873C17.9853 10.984 17.8567 10.9097 17.7157 10.8717C17.5747 10.8337 17.4262 10.8334 17.285 10.8708ZM14.975 14.455C14.3575 15.0759 13.623 15.5682 12.8139 15.9033C12.0049 16.2385 11.1374 16.4098 10.2617 16.4075C9.38568 16.4096 8.51794 16.2381 7.70863 15.9029C6.89932 15.5676 6.16451 15.0752 5.54669 14.4541C2.94836 11.855 2.94836 7.62497 5.54669 5.0258C6.04878 4.52428 6.62844 4.10698 7.26336 3.78997C7.17042 4.98919 7.33748 6.19433 7.75313 7.32304C8.16877 8.45176 8.8232 9.47743 9.67169 10.33C10.5224 11.1811 11.5477 11.8374 12.6769 12.2533C13.8061 12.6693 15.0122 12.835 16.2117 12.7391C15.893 13.373 15.4755 13.9521 14.975 14.455Z" fill="#282525"/>
</svg>
